<svg width="16" height="16" viewBox="0 0 16 16" fill="none" xmlns="http://www.w3.org/2000/svg">
<rect width="16" height="16" rx="8" fill="#ECECEC"/>
<path fill-rule="evenodd" clip-rule="evenodd" d="M8.94271 7.99992L11.8047 5.13792C12.0654 4.87726 12.0654 4.45592 11.8047 4.19526C11.544 3.93459 11.1227 3.93459 10.862 4.19526L8.00004 7.05726L5.13804 4.19526C4.87738 3.93459 4.45604 3.93459 4.19538 4.19526C3.93471 4.45592 3.93471 4.87726 4.19538 5.13792L7.05738 7.99992L4.19538 10.8619C3.93471 11.1226 3.93471 11.5439 4.19538 11.8046C4.32538 11.9346 4.49604 11.9999 4.66671 11.9999C4.83738 11.9999 5.00804 11.9346 5.13804 11.8046L8.00004 8.94259L10.862 11.8046C10.992 11.9346 11.1627 11.9999 11.3334 11.9999C11.504 11.9999 11.6747 11.9346 11.8047 11.8046C12.0654 11.5439 12.0654 11.1226 11.8047 10.8619L8.94271 7.99992Z" fill="#9E9E9E"/>
</svg>
