<svg width="20" height="20" viewBox="0 0 20 20" fill="none" xmlns="http://www.w3.org/2000/svg">
<path d="M15.8333 3.33341H14.1666V2.50008C14.1666 2.27907 14.0788 2.06711 13.9225 1.91083C13.7663 1.75455 13.5543 1.66675 13.3333 1.66675C13.1123 1.66675 12.9003 1.75455 12.744 1.91083C12.5878 2.06711 12.5 2.27907 12.5 2.50008V3.33341H7.49996V2.50008C7.49996 2.27907 7.41216 2.06711 7.25588 1.91083C7.0996 1.75455 6.88764 1.66675 6.66663 1.66675C6.44561 1.66675 6.23365 1.75455 6.07737 1.91083C5.92109 2.06711 5.83329 2.27907 5.83329 2.50008V3.33341H4.16663C3.50358 3.33341 2.8677 3.59681 2.39886 4.06565C1.93002 4.53449 1.66663 5.17037 1.66663 5.83342V15.8334C1.66663 16.4965 1.93002 17.1323 2.39886 17.6012C2.8677 18.07 3.50358 18.3334 4.16663 18.3334H15.8333C16.4963 18.3334 17.1322 18.07 17.6011 17.6012C18.0699 17.1323 18.3333 16.4965 18.3333 15.8334V5.83342C18.3333 5.17037 18.0699 4.53449 17.6011 4.06565C17.1322 3.59681 16.4963 3.33341 15.8333 3.33341ZM16.6666 15.8334C16.6666 16.0544 16.5788 16.2664 16.4225 16.4227C16.2663 16.579 16.0543 16.6667 15.8333 16.6667H4.16663C3.94561 16.6667 3.73365 16.579 3.57737 16.4227C3.42109 16.2664 3.33329 16.0544 3.33329 15.8334V10.0001H16.6666V15.8334ZM16.6666 8.33342H3.33329V5.83342C3.33329 5.6124 3.42109 5.40044 3.57737 5.24416C3.73365 5.08788 3.94561 5.00008 4.16663 5.00008H5.83329V5.83342C5.83329 6.05443 5.92109 6.26639 6.07737 6.42267C6.23365 6.57895 6.44561 6.66675 6.66663 6.66675C6.88764 6.66675 7.0996 6.57895 7.25588 6.42267C7.41216 6.26639 7.49996 6.05443 7.49996 5.83342V5.00008H12.5V5.83342C12.5 6.05443 12.5878 6.26639 12.744 6.42267C12.9003 6.57895 13.1123 6.66675 13.3333 6.66675C13.5543 6.66675 13.7663 6.57895 13.9225 6.42267C14.0788 6.26639 14.1666 6.05443 14.1666 5.83342V5.00008H15.8333C16.0543 5.00008 16.2663 5.08788 16.4225 5.24416C16.5788 5.40044 16.6666 5.6124 16.6666 5.83342V8.33342Z" fill="#959595"/>
</svg>
